<?xml version="1.0" standalone="no"?>
<!DOCTYPE svg PUBLIC "-//W3C//DTD SVG 20010904//EN"
 "http://www.w3.org/TR/2001/REC-SVG-20010904/DTD/svg10.dtd">
<svg version="1.0" xmlns="http://www.w3.org/2000/svg"
 width="32.000000pt" height="32.000000pt" viewBox="0 0 32.000000 32.000000"
 preserveAspectRatio="xMidYMid meet">

<g transform="translate(0.000000,32.000000) scale(0.100000,-0.100000)"
fill="#000000" stroke="none">
<path d="M120 298 c-128 -35 -143 -205 -23 -267 58 -30 152 -3 189 55 25 37
24 116 -3 152 -39 52 -104 76 -163 60z m150 -71 c68 -110 -55 -241 -170 -182
-29 15 -60 51 -60 70 1 5 7 -2 16 -17 41 -77 162 -75 208 2 31 53 18 114 -32
158 -24 21 -25 23 -4 12 13 -6 32 -26 42 -43z m-68 -16 c18 -18 19 -21 5 -35
-8 -9 -13 -25 -10 -35 3 -12 -2 -27 -11 -36 -9 -9 -16 -12 -16 -6 0 6 -12 11
-26 11 -20 0 -25 5 -24 23 1 12 2 33 1 47 -1 20 -3 22 -11 10 -5 -8 -10 -11
-10 -6 0 17 35 45 58 45 13 1 32 -8 44 -18z m-165 -68 c-3 -10 -5 -2 -5 17 0
19 2 27 5 18 2 -10 2 -26 0 -35z"/>
</g>
</svg>
