<?xml version="1.0" encoding="UTF-8"?>
<!DOCTYPE svg PUBLIC "-//W3C//DTD SVG 1.1//EN" "http://www.w3.org/Graphics/SVG/1.1/DTD/svg11.dtd">
<svg xmlns="http://www.w3.org/2000/svg" version="1.1" width="32px" height="32px" style="shape-rendering:geometricPrecision; text-rendering:geometricPrecision; image-rendering:optimizeQuality; fill-rule:evenodd; clip-rule:evenodd" xmlns:xlink="http://www.w3.org/1999/xlink">
<g><path style="opacity:0.516" fill="#330702" d="M 27.5,6.5 C 27.5,7.16667 27.5,7.83333 27.5,8.5C 25.8047,6.45976 23.8047,4.62643 21.5,3C 20.552,2.51722 19.552,2.35055 18.5,2.5C 10.6348,0.935651 4.96818,3.93565 1.5,11.5C 1.5,10.8333 1.5,10.1667 1.5,9.5C 5.3774,1.58298 11.7107,-1.25036 20.5,1C 23.5952,1.93541 25.9286,3.76874 27.5,6.5 Z"/></g>
<g><path style="opacity:1" fill="#b65e05" d="M 18.5,2.5 C 19.552,2.35055 20.552,2.51722 21.5,3C 23.8047,4.62643 25.8047,6.45976 27.5,8.5C 28.2341,9.70792 28.5674,11.0413 28.5,12.5C 27.8333,14.5 27.1667,16.5 26.5,18.5C 27.939,11.3683 25.2723,6.70159 18.5,4.5C 16.7078,3.69088 14.7078,3.19088 12.5,3C 14.4727,2.50454 16.4727,2.33788 18.5,2.5 Z"/></g>
<g><path style="opacity:1" fill="#150b08" d="M 18.5,4.5 C 25.2723,6.70159 27.939,11.3683 26.5,18.5C 22.7882,26.2381 16.7882,28.5714 8.5,25.5C 6.91378,23.3295 5.58044,20.9962 4.5,18.5C 3.5,8.16667 8.16667,3.5 18.5,4.5 Z"/></g>
<g><path style="opacity:1" fill="#a43705" d="M 18.5,2.5 C 16.4727,2.33788 14.4727,2.50454 12.5,3C 14.7078,3.19088 16.7078,3.69088 18.5,4.5C 8.16667,3.5 3.5,8.16667 4.5,18.5C 3.69088,16.7078 3.19088,14.7078 3,12.5C 2.50454,14.4727 2.33788,16.4727 2.5,18.5C 1.53178,16.3926 1.19845,14.0593 1.5,11.5C 4.96818,3.93565 10.6348,0.935651 18.5,2.5 Z"/></g>
<g><path style="opacity:1" fill="#c9beb8" d="M 19.5,19.5 C 17.8008,19.6602 16.1341,19.4935 14.5,19C 15.3279,18.0853 16.3279,17.4186 17.5,17C 16.6667,16.1667 15.8333,15.3333 15,14.5C 14.1072,15.7112 13.2739,15.7112 12.5,14.5C 14.9238,12.2864 14.2571,11.2864 10.5,11.5C 14.4457,7.31819 18.1124,7.65152 21.5,12.5C 19.8267,14.5225 19.1601,16.8559 19.5,19.5 Z"/></g>
<g><path style="opacity:0.439" fill="#2c1404" d="M 27.5,6.5 C 29.6813,8.76409 31.0146,11.4308 31.5,14.5C 31.5,15.1667 31.5,15.8333 31.5,16.5C 27.5311,29.4815 19.1978,33.3148 6.5,28C 2.45582,25.0571 0.12249,21.2238 -0.5,16.5C -0.5,15.8333 -0.5,15.1667 -0.5,14.5C 0.166667,12.8333 0.833333,11.1667 1.5,9.5C 1.5,10.1667 1.5,10.8333 1.5,11.5C 1.19845,14.0593 1.53178,16.3926 2.5,18.5C 3.38326,21.7043 5.04993,24.3709 7.5,26.5C 16.1741,30.6706 23.0075,28.6706 28,20.5C 28.4974,17.854 28.6641,15.1873 28.5,12.5C 28.5674,11.0413 28.2341,9.70792 27.5,8.5C 27.5,7.83333 27.5,7.16667 27.5,6.5 Z"/></g>
<g><path style="opacity:1" fill="#ac8205" d="M 28.5,12.5 C 28.6641,15.1873 28.4974,17.854 28,20.5C 23.0075,28.6706 16.1741,30.6706 7.5,26.5C 7.5,25.8333 7.83333,25.5 8.5,25.5C 16.7882,28.5714 22.7882,26.2381 26.5,18.5C 27.1667,16.5 27.8333,14.5 28.5,12.5 Z"/></g>
<g><path style="opacity:1" fill="#bd7205" d="M 4.5,18.5 C 5.58044,20.9962 6.91378,23.3295 8.5,25.5C 7.83333,25.5 7.5,25.8333 7.5,26.5C 5.04993,24.3709 3.38326,21.7043 2.5,18.5C 2.33788,16.4727 2.50454,14.4727 3,12.5C 3.19088,14.7078 3.69088,16.7078 4.5,18.5 Z"/></g>
<g><path style="opacity:1" fill="#969597" d="M 10.5,11.5 C 14.2571,11.2864 14.9238,12.2864 12.5,14.5C 13.2739,15.7112 14.1072,15.7112 15,14.5C 15.8333,15.3333 16.6667,16.1667 17.5,17C 16.3279,17.4186 15.3279,18.0853 14.5,19C 16.1341,19.4935 17.8008,19.6602 19.5,19.5C 18.4955,20.6828 17.6622,22.0161 17,23.5C 16.3946,21.5188 15.3946,21.1854 14,22.5C 13.3333,21.8333 12.6667,21.1667 12,20.5C 11.8999,17.5628 11.0666,14.8961 9.5,12.5C 9.62358,11.8933 9.95691,11.56 10.5,11.5 Z"/></g>
</svg>
